:FULLY-SPECIFIED
:FORCE-ALL-JOINTS-BE-3DOF
:DEGREES
306
root -0.360248 15.4157 -36.3014 11.9341 59.8006 4.64859
lfemur -20.9682 22.1185 -14.0793
ltibia 66.8153 -0 0
lfoot -27.0077 31.9459 0.085203
ltoes 5.64204 -0 0
rfemur -37.912 -12.3725 9.95871
rtibia 49.1414 -0 0
rfoot -3.4456 -10.1095 3.04939
rtoes -12.6838 0 0
lowerback 14.4889 1.50136 -0.506559
upperback -2.77213 2.28047 2.67762
thorax -11.108 1.20058 2.68296
lowerneck -5.65916 4.87458 1.37102
upperneck 5.66627 6.91135 -6.36485
head 3.3825 3.24437 -1.79771
lclavicle -5.30755e-14 -2.14687e-14 0
lhumerus -26.9811 -32.7798 87.595
lradius 116.122 -0 0
lwrist 46.3552 0 0
lhand -19.0957 50.6252 -0.061225
lfingers 7.12502 -0 0
lthumb 7.21295 80.4944 -0.059069
rclavicle -5.30755e-14 -2.14687e-14 0
rhumerus -6.71673 40.9821 -76.5282
rradius 88.7293 -0 0
rwrist -29.7457 0 0
rhand 28.6958 -23.9119 1.57286
rfingers 7.12502 -0 0
rthumb 51.8857 -37.5324 3.27076
307
root -0.258572 15.4106 -36.255 12.566 61.8223 5.77126
lfemur -19.7472 21.1244 -14.03
ltibia 65.8975 -0 0
lfoot -27.105 31.9365 0.0890275
ltoes 4.84172 -0 0
rfemur -38.3237 -11.668 9.40085
rtibia 48.3163 -0 0
rfoot -2.04569 -9.33095 3.12041
rtoes -11.2058 0 0
lowerback 14.5534 1.47963 -0.964868
upperback -2.69682 2.16051 2.63097
thorax -11.0647 1.16974 2.91911
lowerneck -5.69856 4.40745 1.05468
upperneck 5.75551 6.29384 -6.06124
head 3.39871 2.93908 -1.68477
lclavicle -5.30755e-14 -2.14687e-14 0
lhumerus -28.0989 -33.2509 89.1828
lradius 115.73 -0 0
lwrist 47.1364 0 0
lhand -19.1979 50.2429 -0.0544336
lfingers 7.12502 -0 0
lthumb 7.11426 80.115 -0.0525588
rclavicle -5.30755e-14 -2.14687e-14 0
rhumerus -3.72413 40.0955 -75.2685
rradius 87.2104 -0 0
rwrist -28.3006 0 0
rhand 27.1623 -24.3225 1.63708
rfingers 7.12502 -0 0
rthumb 50.4641 -38.6001 3.44229
308
root -0.155496 15.4053 -36.2076 13.326 63.8295 7.02392
lfemur -18.5224 20.1092 -14.0005
ltibia 64.9596 -0 0
lfoot -27.2021 31.9101 0.0924364
ltoes 4.02319 -0 0
rfemur -38.7388 -10.9564 8.8347
rtibia 47.4831 -0 0
rfoot -0.641974 -8.53519 3.16975
rtoes -9.70785 0 0
lowerback 14.6151 1.45841 -1.4293
upperback -2.62095 2.03932 2.58291
thorax -11.0195 1.13842 3.1577
lowerneck -5.73594 3.93108 0.732149
upperneck 5.84442 5.66384 -5.74983
head 3.4149 2.62785 -1.56864
lclavicle -5.30755e-14 -2.14687e-14 0
lhumerus -29.2507 -33.6836 90.8087
lradius 115.282 -0 0
lwrist 47.8851 0 0
lhand -19.3063 49.8451 -0.0473955
lfingers 7.12502 -0 0
lthumb 7.00961 79.7202 -0.04581
rclavicle -5.30755e-14 -2.14687e-14 0
rhumerus -0.784675 39.1279 -74.0841
rradius 85.6417 -0 0
rwrist -26.8202 0 0
rhand 25.5837 -24.7406 1.69025
rfingers 7.12502 -0 0
rthumb 48.9972 -39.6944 3.59043
309
root -0.0506451 15.3998 -36.159 14.2417 65.8146 8.43301
lfemur -17.2969 19.076 -13.9913
ltibia 64.0044 -0 0
lfoot -27.2987 31.8667 0.0953782
ltoes 3.18883 -0 0
rfemur -39.1565 -10.2399 8.26178
rtibia 46.644 -0 0
rfoot 0.761192 -7.72512 3.19669
rtoes -8.19426 0 0
lowerback 14.674 1.43776 -1.89851
upperback -2.54474 1.91727 2.53356
thorax -10.9724 1.1067 3.39805
lowerneck -5.77103 3.44686 0.404333
upperneck 5.93252 5.02316 -5.43154
head 3.43097 2.31157 -1.44966
lclavicle -5.30755e-14 -2.14687e-14 0
lhumerus -30.4316 -34.0753 92.4667
lradius 114.782 -0 0
lwrist 48.5994 0 0
lhand -19.4205 49.4331 -0.0402381
lfingers 7.12502 -0 0
lthumb 6.89929 79.3112 -0.0389446
rclavicle -5.30755e-14 -2.14687e-14 0
rhumerus 2.09095 38.0854 -72.9823
rradius 84.0278 -0 0
rwrist -25.3088 0 0
rhand 23.9648 -25.1647 1.73149
rfingers 7.12502 -0 0
rthumb 47.4897 -40.8116 3.71266
310
root 0.0563577 15.394 -36.1093 15.3481 67.7699 10.0325
lfemur -16.0737 18.0282 -14.0029
ltibia 63.0347 -0 0
lfoot -27.3946 31.8065 0.0978026
ltoes 2.34103 -0 0
rfemur -39.5757 -9.52058 7.68361
rtibia 45.8016 -0 0
rfoot 2.15944 -6.90366 3.20075
rtoes -6.66933 0 0
lowerback 14.7297 1.41768 -2.37117
upperback -2.46841 1.79468 2.48307
thorax -10.9237 1.07467 3.63945
lowerneck -5.80364 2.95617 0.0721444
upperneck 6.01938 4.37362 -5.10729
head 3.44684 1.99116 -1.32816
lclavicle -5.30755e-14 -2.14687e-14 0
lhumerus -31.6365 -34.4235 94.1506
lradius 114.23 -0 0
lwrist 49.277 0 0
lhand -19.5403 49.0078 -0.0330839
lfingers 7.12502 -0 0
lthumb 6.78362 78.8891 -0.0320803
rclavicle -5.30755e-14 -2.14687e-14 0
rhumerus 4.8939 36.9749 -71.9688
rradius 82.3734 -0 0
rwrist -23.7708 0 0
rhand 22.3102 -25.5934 1.76005
rfingers 7.12502 -0 0
rthumb 45.9464 -41.948 3.80676
311
root 0.165888 15.3876 -36.0585 16.6905 69.6869 11.8667
lfemur -14.8555 16.9692 -14.0352
ltibia 62.053 -0 0
lfoot -27.4895 31.7296 0.0996606
ltoes 1.48218 -0 0
rfemur -39.9954 -8.80048 7.10176
rtibia 44.9582 -0 0
rfoot 3.54836 -6.07375 3.18171
rtoes -5.1374 0 0
lowerback 14.7822 1.39821 -2.84591
upperback -2.39216 1.67193 2.43158
thorax -10.8735 1.0424 3.88124
lowerneck -5.83356 2.46041 -0.263518
upperneck 6.10459 3.71702 -4.77796
head 3.46244 1.66752 -1.2045
lclavicle -5.30755e-14 -2.14687e-14 0
lhumerus -32.8597 -34.7264 95.8535
lradius 113.629 -0 0
lwrist 49.9161 0 0
lhand -19.6654 48.5707 -0.02605
lfingers 7.12502 -0 0
lthumb 6.66291 78.4551 -0.0253294
rclavicle -5.30755e-14 -2.14687e-14 0
rhumerus 7.61701 35.8035 -71.0474
rradius 80.683 -0 0
rwrist -22.2105 0 0
rhand 20.6247 -26.0251 1.77533
rfingers 7.12502 -0 0
rthumb 44.3721 -43.0996 3.87084
312
root 0.278321 15.3805 -36.0065 18.3276 71.5563 13.9933
lfemur -13.645 15.9022 -14.0882
ltibia 61.0623 -0 0
lfoot -27.5831 31.6361 0.100905
ltoes 0.614649 -0 0
rfemur -40.4144 -8.08162 6.51785
rtibia 44.1161 -0 0
rfoot 4.92356 -5.23832 3.13959
rtoes -3.60278 0 0
lowerback 14.8313 1.37937 -3.32142
upperback -2.31621 1.54935 2.37923
thorax -10.8219 1.00997 4.12271
lowerneck -5.86064 1.96098 -0.601761
upperneck 6.18781 3.0552 -4.44443
head 3.47769 1.34154 -1.079
lclavicle -5.30755e-14 -2.14687e-14 0
lhumerus -34.0953 -34.9824 97.5684
lradius 112.978 -0 0
lwrist 50.5146 0 0
lhand -19.7953 48.1227 -0.0192467
lfingers 7.12502 -0 0
lthumb 6.53746 78.0103 -0.0187977
rclavicle -5.30755e-14 -2.14687e-14 0
rhumerus 10.2546 34.5789 -70.2199
rradius 78.9612 -0 0
rwrist -20.6321 0 0
rhand 18.913 -26.458 1.77687
rfingers 7.12502 -0 0
rthumb 42.7718 -44.2624 3.90337
313
root 0.394034 15.3726 -35.9534 20.3371 73.3674 16.4889
lfemur -12.4449 14.8307 -14.1614
ltibia 60.0651 -0 0
lfoot -27.6751 31.5262 0.101492
ltoes -0.259175 0 0
rfemur -40.8316 -7.36597 5.93353
rtibia 43.2779 -0 0
rfoot 6.28063 -4.40026 3.07466
rtoes -2.0698 0 0
lowerback 14.8767 1.36115 -3.79633
upperback -2.24078 1.42729 2.32617
thorax -10.769 0.977471 4.36318
lowerneck -5.88475 1.45927 -0.941699
upperneck 6.26872 2.38999 -4.10755
head 3.49255 1.01414 -0.951994
lclavicle -5.30755e-14 -2.14687e-14 0
lhumerus -35.3369 -35.1906 99.288
lradius 112.281 -0 0
lwrist 51.0704 0 0
lhand -19.9298 47.6651 -0.0127769
lfingers 7.12502 -0 0
lthumb 6.4076 77.556 -0.0125839
rclavicle -5.30755e-14 -2.14687e-14 0
rhumerus 12.8024 33.309 -69.4872
rradius 77.2127 -0 0
rwrist -19.04 0 0
rhand 17.1799 -26.8907 1.76436
rfingers 7.12502 -0 0
rthumb 41.1505 -45.4323 3.90318
314
root 0.513401 15.3637 -35.8991 22.8216 75.1081 19.4552
lfemur -11.2576 13.7579 -14.2543
ltibia 59.0643 -0 0
lfoot -27.7653 31.3999 0.10138
ltoes -1.13691 0 0
rfemur -41.2457 -6.65545 5.35052
rtibia 42.4458 -0 0
rfoot 7.61518 -3.56245 2.98746
rtoes -0.542781 0 0
lowerback 14.9184 1.34357 -4.26931
upperback -2.16608 1.30611 2.27253
thorax -10.715 0.94499 4.60196
lowerneck -5.9058 0.956687 -1.28245
upperneck 6.34705 1.72322 -3.76815
head 3.50695 0.68621 -0.823824
lclavicle -5.30755e-14 -2.14687e-14 0
lhumerus -36.5781 -35.3502 101.004
lradius 111.537 -0 0
lwrist 51.5816 0 0
lhand -20.0685 47.1991 -0.00673515
lfingers 7.12502 -0 0
lthumb 6.27364 77.0933 -0.00677869
rclavicle -5.30755e-14 -2.14687e-14 0
rhumerus 15.2571 32.0016 -68.8484
rradius 75.4421 -0 0
rwrist -17.4386 0 0
rhand 15.4301 -27.3213 1.73766
rfingers 7.12502 -0 0
rthumb 39.5133 -46.605 3.86949
